<svg xmlns="http://www.w3.org/2000/svg" width="33.85714256520167" height="36.28571418840056" fill="none" style=""><rect id="backgroundrect" width="100%" height="100%" x="0" y="0" fill="none" stroke="none" class="" style=""/>

<g class="currentLayer" style=""><title>Layer 1</title><path fill-rule="evenodd" clip-rule="evenodd" d="M3.6904558954114357,30.59487157274971 C3.6904558954114357,30.59487157274971 3.7335939200260087,30.50006629530678 3.8189073060783785,30.3271765342165 L3.941465854465906,30.08334515284786 C5.10668602598304,27.80477173814068 10.285424306303208,18.69015340370426 18.57142178859586,18.69015340370426 C26.857338101986592,18.69015340370426 32.0362387201106,27.80477173814068 33.20133713827485,30.08334515284786 L33.32390218017453,30.3271765342165 C33.409291864994714,30.50006629530678 33.45231138301247,30.59487157274971 33.45231138301247,30.59487157274971 H3.6904558954114357 zM18.57194126956815,0.8330079682584762 C21.87372986188287,0.8330079682584762 24.506849040178004,3.2938250483132365 24.695323230436983,6.5572207500196455 C24.93834292278642,10.759107529509162 22.083307966641133,14.225880031867122 18.57194126956815,14.225880031867122 C15.04771741843099,14.225880031867122 12.205393512326422,10.744221152896975 12.447406710292046,6.5572207500196455 C12.6364166153037,3.2938250483132365 15.268610468116943,0.8330079682584762 18.57194126956815,0.8330079682584762 z" stroke="#0072BA" stroke-linecap="square" id="svg_1" class="" fill="#0072ba" fill-opacity="1"/></g></svg>