<svg width="22" height="22" viewBox="0 0 22 22" fill="none" xmlns="http://www.w3.org/2000/svg">
<path d="M10.5 12.9996C6.5 13.3996 3.16667 17.833 2 19.9996H20C18.5 17.4996 14.5 12.5996 10.5 12.9996Z" fill="#0072BA"/>
<circle cx="11" cy="6" r="4" fill="#0072BA"/>
<path fill-rule="evenodd" clip-rule="evenodd" d="M1.83331 20.1663C1.83331 20.1663 1.85989 20.1079 1.91244 20.0014L1.98794 19.8512C2.70571 18.4476 5.89581 12.833 11 12.833C16.1041 12.833 19.2943 18.4476 20.012 19.8512L20.0875 20.0014C20.1401 20.1079 20.1666 20.1663 20.1666 20.1663H1.83331ZM11.0003 1.83301C13.0342 1.83301 14.6562 3.34887 14.7723 5.35912C14.922 7.94748 13.1633 10.083 11.0003 10.083C8.82938 10.083 7.07851 7.93831 7.22759 5.35912C7.34402 3.34887 8.96545 1.83301 11.0003 1.83301Z" stroke="#0072BA" stroke-linecap="square"/>
</svg>
