<svg width="19" height="21" viewBox="0 0 19 21" fill="none" xmlns="http://www.w3.org/2000/svg">
<path d="M17.71 9.45223L9.32099 18.0035C7.70883 19.6468 5.07204 19.6721 3.4287 18.0599C1.78537 16.4478 1.76011 13.811 3.37227 12.1677L12.4908 2.87278C12.9745 2.37975 13.6342 2.09905 14.3248 2.09244C15.0155 2.08582 15.6804 2.35384 16.1735 2.83751C16.6665 3.32119 16.9472 3.98091 16.9538 4.67155C16.9604 5.36218 16.6924 6.02716 16.2087 6.52019L8.54918 14.3279C8.14797 14.7369 7.48509 14.7432 7.07611 14.342C6.66714 13.9408 6.66079 13.2779 7.062 12.8689L13.9921 5.80482L12.8767 4.71059L5.94662 11.7747C5.46294 12.2677 5.19493 12.9327 5.20155 13.6233C5.20816 14.314 5.48886 14.9737 5.98189 15.4574C6.47492 15.9411 7.1399 16.2091 7.83053 16.2024C8.52117 16.1958 9.18089 15.9151 9.66457 15.4221L17.3241 7.61441C18.9363 5.97108 18.911 3.33428 17.2677 1.72213C15.6244 0.109972 12.9876 0.135225 11.3754 1.77856L2.25688 11.0734C0.0392594 13.3339 0.0739653 16.9577 2.33448 19.1753C4.59499 21.393 8.21875 21.3582 10.4364 19.0977L18.8254 10.5465L17.71 9.45223Z" fill="#444444"/>
</svg>
