<svg width="35" height="29" viewBox="0 0 35 29" fill="none" xmlns="http://www.w3.org/2000/svg">
<path d="M32.121 17.6071V20.7143C32.121 22.5376 31.3155 24.0804 29.7043 25.3426V28.4821C29.7043 28.6332 29.6477 28.7573 29.5344 28.8544C29.4211 28.9515 29.2764 29 29.1002 29H27.8918C27.7156 29 27.5709 28.9515 27.4576 28.8544C27.3443 28.7573 27.2877 28.6332 27.2877 28.4821V26.5725C26.4947 26.8099 25.6892 26.9286 24.871 26.9286H10.371C9.55287 26.9286 8.74731 26.8099 7.95435 26.5725V28.3527C7.95435 28.5361 7.89456 28.6898 7.77498 28.8139C7.65541 28.938 7.51381 29 7.35018 29H6.14185C5.97822 29 5.83662 28.938 5.71704 28.8139C5.59747 28.6898 5.53768 28.5361 5.53768 28.3527V25.3426C3.92657 24.0804 3.12101 22.5376 3.12101 20.7143V17.6071H32.121ZM13.996 10.875C13.996 11.026 13.9394 11.1501 13.8261 11.2472C13.7128 11.3443 13.5681 11.3929 13.3918 11.3929C13.2156 11.3929 13.0709 11.3443 12.9576 11.2472C12.8443 11.1501 12.7877 11.026 12.7877 10.875C12.7877 10.724 12.8443 10.5999 12.9576 10.5028C13.0709 10.4057 13.2156 10.3571 13.3918 10.3571C13.5681 10.3571 13.7128 10.4057 13.8261 10.5028C13.9394 10.5999 13.996 10.724 13.996 10.875ZM15.2043 9.83929C15.2043 9.99033 15.1477 10.1144 15.0344 10.2115C14.9211 10.3086 14.7764 10.3571 14.6002 10.3571C14.424 10.3571 14.2792 10.3086 14.1659 10.2115C14.0527 10.1144 13.996 9.99033 13.996 9.83929C13.996 9.68824 14.0527 9.56417 14.1659 9.46708C14.2792 9.36998 14.424 9.32143 14.6002 9.32143C14.7764 9.32143 14.9211 9.36998 15.0344 9.46708C15.1477 9.56417 15.2043 9.68824 15.2043 9.83929ZM13.996 8.80357C13.996 8.95461 13.9394 9.07868 13.8261 9.17578C13.7128 9.27288 13.5681 9.32143 13.3918 9.32143C13.2156 9.32143 13.0709 9.27288 12.9576 9.17578C12.8443 9.07868 12.7877 8.95461 12.7877 8.80357C12.7877 8.65253 12.8443 8.52846 12.9576 8.43136C13.0709 8.33426 13.2156 8.28571 13.3918 8.28571C13.5681 8.28571 13.7128 8.33426 13.8261 8.43136C13.9394 8.52846 13.996 8.65253 13.996 8.80357ZM16.4127 8.80357C16.4127 8.95461 16.356 9.07868 16.2428 9.17578C16.1295 9.27288 15.9847 9.32143 15.8085 9.32143C15.6323 9.32143 15.4875 9.27288 15.3743 9.17578C15.261 9.07868 15.2043 8.95461 15.2043 8.80357C15.2043 8.65253 15.261 8.52846 15.3743 8.43136C15.4875 8.33426 15.6323 8.28571 15.8085 8.28571C15.9847 8.28571 16.1295 8.33426 16.2428 8.43136C16.356 8.52846 16.4127 8.65253 16.4127 8.80357ZM15.2043 7.76786C15.2043 7.9189 15.1477 8.04297 15.0344 8.14007C14.9211 8.23717 14.7764 8.28571 14.6002 8.28571C14.424 8.28571 14.2792 8.23717 14.1659 8.14007C14.0527 8.04297 13.996 7.9189 13.996 7.76786C13.996 7.61682 14.0527 7.49275 14.1659 7.39565C14.2792 7.29855 14.424 7.25 14.6002 7.25C14.7764 7.25 14.9211 7.29855 15.0344 7.39565C15.1477 7.49275 15.2043 7.61682 15.2043 7.76786ZM13.996 6.73214C13.996 6.88318 13.9394 7.00725 13.8261 7.10435C13.7128 7.20145 13.5681 7.25 13.3918 7.25C13.2156 7.25 13.0709 7.20145 12.9576 7.10435C12.8443 7.00725 12.7877 6.88318 12.7877 6.73214C12.7877 6.5811 12.8443 6.45703 12.9576 6.35993C13.0709 6.26283 13.2156 6.21429 13.3918 6.21429C13.5681 6.21429 13.7128 6.26283 13.8261 6.35993C13.9394 6.45703 13.996 6.5811 13.996 6.73214ZM34.5377 15.0179V16.0536C34.5377 16.2046 34.481 16.3287 34.3678 16.4258C34.2545 16.5229 34.1097 16.5714 33.9335 16.5714H1.30851C1.1323 16.5714 0.987549 16.5229 0.874268 16.4258C0.760986 16.3287 0.704346 16.2046 0.704346 16.0536V15.0179C0.704346 14.8668 0.760986 14.7427 0.874268 14.6456C0.987549 14.5485 1.1323 14.5 1.30851 14.5H3.12101V4.14286C3.12101 2.99926 3.59302 2.02288 4.53703 1.21373C5.48104 0.404576 6.62014 0 7.95435 0C9.31372 0 10.4717 0.420759 11.4283 1.26228C12.0073 1.05729 12.6241 0.992559 13.2786 1.06808C13.9331 1.1436 14.5184 1.35398 15.0344 1.69922L15.4498 1.34319C15.5882 1.22452 15.7267 1.22452 15.8652 1.34319L16.6581 2.02288C16.7966 2.14156 16.7966 2.26023 16.6581 2.37891L10.7297 7.46038C10.5913 7.57905 10.4528 7.57905 10.3144 7.46038L9.5214 6.78069C9.38295 6.66202 9.38295 6.54334 9.5214 6.42466L9.93677 6.06864C9.48364 5.57236 9.22876 5.01135 9.17212 4.3856C9.11548 3.75986 9.26337 3.17727 9.6158 2.63783C9.15009 2.26023 8.59627 2.07143 7.95435 2.07143C7.28724 2.07143 6.71769 2.27372 6.24569 2.67829C5.77368 3.08287 5.53768 3.57106 5.53768 4.14286V14.5H33.9335C34.1097 14.5 34.2545 14.5485 34.3678 14.6456C34.481 14.7427 34.5377 14.8668 34.5377 15.0179ZM17.621 7.76786C17.621 7.9189 17.5644 8.04297 17.4511 8.14007C17.3378 8.23717 17.1931 8.28571 17.0168 8.28571C16.8406 8.28571 16.6959 8.23717 16.5826 8.14007C16.4693 8.04297 16.4127 7.9189 16.4127 7.76786C16.4127 7.61682 16.4693 7.49275 16.5826 7.39565C16.6959 7.29855 16.8406 7.25 17.0168 7.25C17.1931 7.25 17.3378 7.29855 17.4511 7.39565C17.5644 7.49275 17.621 7.61682 17.621 7.76786ZM16.4127 6.73214C16.4127 6.88318 16.356 7.00725 16.2428 7.10435C16.1295 7.20145 15.9847 7.25 15.8085 7.25C15.6323 7.25 15.4875 7.20145 15.3743 7.10435C15.261 7.00725 15.2043 6.88318 15.2043 6.73214C15.2043 6.5811 15.261 6.45703 15.3743 6.35993C15.4875 6.26283 15.6323 6.21429 15.8085 6.21429C15.9847 6.21429 16.1295 6.26283 16.2428 6.35993C16.356 6.45703 16.4127 6.5811 16.4127 6.73214ZM15.2043 5.69643C15.2043 5.84747 15.1477 5.97154 15.0344 6.06864C14.9211 6.16574 14.7764 6.21429 14.6002 6.21429C14.424 6.21429 14.2792 6.16574 14.1659 6.06864C14.0527 5.97154 13.996 5.84747 13.996 5.69643C13.996 5.54539 14.0527 5.42132 14.1659 5.32422C14.2792 5.22712 14.424 5.17857 14.6002 5.17857C14.7764 5.17857 14.9211 5.22712 15.0344 5.32422C15.1477 5.42132 15.2043 5.54539 15.2043 5.69643ZM18.8293 6.73214C18.8293 6.88318 18.7727 7.00725 18.6594 7.10435C18.5461 7.20145 18.4014 7.25 18.2252 7.25C18.049 7.25 17.9042 7.20145 17.7909 7.10435C17.6777 7.00725 17.621 6.88318 17.621 6.73214C17.621 6.5811 17.6777 6.45703 17.7909 6.35993C17.9042 6.26283 18.049 6.21429 18.2252 6.21429C18.4014 6.21429 18.5461 6.26283 18.6594 6.35993C18.7727 6.45703 18.8293 6.5811 18.8293 6.73214ZM17.621 5.69643C17.621 5.84747 17.5644 5.97154 17.4511 6.06864C17.3378 6.16574 17.1931 6.21429 17.0168 6.21429C16.8406 6.21429 16.6959 6.16574 16.5826 6.06864C16.4693 5.97154 16.4127 5.84747 16.4127 5.69643C16.4127 5.54539 16.4693 5.42132 16.5826 5.32422C16.6959 5.22712 16.8406 5.17857 17.0168 5.17857C17.1931 5.17857 17.3378 5.22712 17.4511 5.32422C17.5644 5.42132 17.621 5.54539 17.621 5.69643ZM16.4127 4.66071C16.4127 4.81176 16.356 4.93583 16.2428 5.03292C16.1295 5.13002 15.9847 5.17857 15.8085 5.17857C15.6323 5.17857 15.4875 5.13002 15.3743 5.03292C15.261 4.93583 15.2043 4.81176 15.2043 4.66071C15.2043 4.50967 15.261 4.3856 15.3743 4.2885C15.4875 4.19141 15.6323 4.14286 15.8085 4.14286C15.9847 4.14286 16.1295 4.19141 16.2428 4.2885C16.356 4.3856 16.4127 4.50967 16.4127 4.66071ZM20.0377 5.69643C20.0377 5.84747 19.981 5.97154 19.8678 6.06864C19.7545 6.16574 19.6097 6.21429 19.4335 6.21429C19.2573 6.21429 19.1125 6.16574 18.9993 6.06864C18.886 5.97154 18.8293 5.84747 18.8293 5.69643C18.8293 5.54539 18.886 5.42132 18.9993 5.32422C19.1125 5.22712 19.2573 5.17857 19.4335 5.17857C19.6097 5.17857 19.7545 5.22712 19.8678 5.32422C19.981 5.42132 20.0377 5.54539 20.0377 5.69643ZM18.8293 4.66071C18.8293 4.81176 18.7727 4.93583 18.6594 5.03292C18.5461 5.13002 18.4014 5.17857 18.2252 5.17857C18.049 5.17857 17.9042 5.13002 17.7909 5.03292C17.6777 4.93583 17.621 4.81176 17.621 4.66071C17.621 4.50967 17.6777 4.3856 17.7909 4.2885C17.9042 4.19141 18.049 4.14286 18.2252 4.14286C18.4014 4.14286 18.5461 4.19141 18.6594 4.2885C18.7727 4.3856 18.8293 4.50967 18.8293 4.66071ZM21.246 4.66071C21.246 4.81176 21.1894 4.93583 21.0761 5.03292C20.9628 5.13002 20.8181 5.17857 20.6418 5.17857C20.4656 5.17857 20.3209 5.13002 20.2076 5.03292C20.0943 4.93583 20.0377 4.81176 20.0377 4.66071C20.0377 4.50967 20.0943 4.3856 20.2076 4.2885C20.3209 4.19141 20.4656 4.14286 20.6418 4.14286C20.8181 4.14286 20.9628 4.19141 21.0761 4.2885C21.1894 4.3856 21.246 4.50967 21.246 4.66071Z" fill="#8A99B1"/>
</svg>
