<svg width="39" height="29" viewBox="0 0 39 29" fill="none" xmlns="http://www.w3.org/2000/svg">
<path d="M36.2837 19.3333H2.45036C1.77067 19.3333 1.19797 19.1005 0.732259 18.6348C0.266547 18.1691 0.0336914 17.5964 0.0336914 16.9167V12.0833C0.0336914 11.4036 0.266547 10.8309 0.732259 10.3652C1.19797 9.89952 1.77067 9.66667 2.45036 9.66667H36.2837C36.9382 9.66667 37.5046 9.89952 37.9829 10.3652C38.4612 10.8309 38.7004 11.4036 38.7004 12.0833V16.9167C38.7004 17.5712 38.4612 18.1376 37.9829 18.6159C37.5046 19.0942 36.9382 19.3333 36.2837 19.3333ZM12.117 7.25H2.45036C1.77067 7.25 1.19797 7.01714 0.732259 6.55143C0.266547 6.08572 0.0336914 5.51302 0.0336914 4.83333V3.625C0.0336914 2.36632 0.47423 1.44748 1.35531 0.86849C2.23638 0.289497 3.40696 0 4.86702 0C5.82362 0 7.04454 0.207682 8.52979 0.623047C10.015 1.03841 11.387 1.63628 12.6457 2.41667C13.9044 3.19705 14.5337 4.0026 14.5337 4.83333C14.5337 5.51302 14.3008 6.08572 13.8351 6.55143C13.3694 7.01714 12.7967 7.25 12.117 7.25ZM9.70036 21.75V26.5833C9.70036 27.263 9.46121 27.8357 8.98291 28.3014C8.50461 28.7671 7.93191 29 7.26481 29C6.59771 29 6.0313 28.7671 5.56559 28.3014C5.09988 27.8357 4.86702 27.263 4.86702 26.5833V21.75H9.70036ZM33.867 21.75V26.5833C33.867 27.263 33.6279 27.8357 33.1496 28.3014C32.6713 28.7671 32.0986 29 31.4315 29C30.7644 29 30.198 28.7671 29.7323 28.3014C29.2665 27.8357 29.0337 27.263 29.0337 26.5833V21.75H33.867Z" fill="#8A99B1"/>
</svg>
