<svg width="20" height="20" viewBox="0 0 20 20" fill="none" xmlns="http://www.w3.org/2000/svg">
<path fill-rule="evenodd" clip-rule="evenodd" d="M15.6835 12.0929C15.081 11.4979 14.3293 11.4979 13.731 12.0929C13.2743 12.5454 12.8176 12.9979 12.3685 13.4587C12.246 13.5854 12.1418 13.6121 11.9926 13.5279C11.6968 13.3662 11.3826 13.2362 11.0985 13.0596C9.77513 12.2271 8.66679 11.1562 7.68429 9.95206C7.19679 9.3529 6.76346 8.71289 6.46013 7.99123C6.39846 7.84539 6.41013 7.74956 6.52929 7.63123C6.98596 7.18956 7.43096 6.73706 7.88013 6.28373C8.50513 5.65456 8.50513 4.91873 7.87596 4.2854C7.51929 3.92456 7.16179 3.57123 6.80596 3.21123C6.43679 2.8429 6.07263 2.4704 5.70096 2.10623C5.09846 1.51956 4.34679 1.51956 3.74763 2.1104C3.28763 2.56206 2.84596 3.02706 2.37846 3.47206C1.94429 3.88206 1.72596 4.38456 1.68013 4.97206C1.60679 5.92706 1.84096 6.82873 2.17096 7.70706C2.84596 9.52623 3.87429 11.1412 5.12096 12.6221C6.80596 14.6254 8.81596 16.2096 11.1676 17.3529C12.2268 17.8671 13.3235 18.2621 14.5176 18.3271C15.3376 18.3737 16.0518 18.1662 16.6235 17.5254C17.0151 17.0879 17.456 16.6887 17.8701 16.2712C18.4843 15.6496 18.4876 14.8971 17.8776 14.2829C17.1493 13.5512 16.416 12.8221 15.6835 12.0929Z" stroke="#0072BA" stroke-width="2" stroke-linecap="square"/>
</svg>
