<svg width="15" height="15" viewBox="0 0 15 15" fill="none" xmlns="http://www.w3.org/2000/svg">
<path d="M11.5 10.25C12.0967 10.25 12.669 10.487 13.091 10.909C13.513 11.331 13.75 11.9033 13.75 12.5C13.75 13.0967 13.513 13.669 13.091 14.091C12.669 14.5129 12.0967 14.75 11.5 14.75C11.0343 14.7513 10.5796 14.6076 10.1993 14.3388C9.81894 14.07 9.53172 13.6895 9.37751 13.25H8.50001V11.75H9.37751C9.68501 10.8725 10.5175 10.25 11.5 10.25ZM11.5 11.75C11.3011 11.75 11.1103 11.829 10.9697 11.9697C10.829 12.1103 10.75 12.3011 10.75 12.5C10.75 12.6989 10.829 12.8897 10.9697 13.0303C11.1103 13.171 11.3011 13.25 11.5 13.25C11.6989 13.25 11.8897 13.171 12.0303 13.0303C12.171 12.8897 12.25 12.6989 12.25 12.5C12.25 12.3011 12.171 12.1103 12.0303 11.9697C11.8897 11.829 11.6989 11.75 11.5 11.75ZM11.5 4.99999C11.7845 4.99999 12.0572 4.887 12.2584 4.68586C12.4595 4.48473 12.5725 4.21194 12.5725 3.92749C12.5725 3.64305 12.4595 3.37025 12.2584 3.16912C12.0572 2.96799 11.7845 2.85499 11.5 2.85499C11.2156 2.85499 10.9428 2.96799 10.7416 3.16912C10.5405 3.37025 10.4275 3.64305 10.4275 3.92749C10.4275 4.21194 10.5405 4.48473 10.7416 4.68586C10.9428 4.887 11.2156 4.99999 11.5 4.99999ZM11.5 0.92749C12.2957 0.92749 13.0587 1.24356 13.6213 1.80617C14.1839 2.36878 14.5 3.13184 14.5 3.92749C14.5 6.16999 11.5 9.49999 11.5 9.49999C11.5 9.49999 8.50001 6.16999 8.50001 3.92749C8.50001 3.13184 8.81608 2.36878 9.37869 1.80617C9.9413 1.24356 10.7044 0.92749 11.5 0.92749ZM4.62251 11.75H5.50001V13.25H4.62251C4.4683 13.6895 4.18108 14.07 3.80072 14.3388C3.42037 14.6076 2.96576 14.7513 2.50001 14.75C1.90327 14.75 1.33098 14.5129 0.909019 14.091C0.487062 13.669 0.250009 13.0967 0.250009 12.5C0.250009 11.5175 0.872509 10.685 1.75001 10.3775V9.49999H3.25001V10.3775C3.88751 10.6025 4.39751 11.1125 4.62251 11.75ZM2.50001 11.75C2.3011 11.75 2.11033 11.829 1.96968 11.9697C1.82903 12.1103 1.75001 12.3011 1.75001 12.5C1.75001 12.6989 1.82903 12.8897 1.96968 13.0303C2.11033 13.171 2.3011 13.25 2.50001 13.25C2.69892 13.25 2.88969 13.171 3.03034 13.0303C3.17099 12.8897 3.25001 12.6989 3.25001 12.5C3.25001 12.3011 3.17099 12.1103 3.03034 11.9697C2.88969 11.829 2.69892 11.75 2.50001 11.75ZM2.50001 1.24999C3.09675 1.24999 3.66904 1.48704 4.091 1.909C4.51296 2.33096 4.75001 2.90325 4.75001 3.49999C4.75001 4.48249 4.12751 5.31499 3.25001 5.62249V6.49999H1.75001V5.62249C1.31053 5.46828 0.929969 5.18106 0.661167 4.8007C0.392366 4.42035 0.248662 3.96574 0.250009 3.49999C0.250009 2.90325 0.487062 2.33096 0.909019 1.909C1.33098 1.48704 1.90327 1.24999 2.50001 1.24999ZM2.50001 2.74999C2.3011 2.74999 2.11033 2.82901 1.96968 2.96966C1.82903 3.11031 1.75001 3.30108 1.75001 3.49999C1.75001 3.6989 1.82903 3.88967 1.96968 4.03032C2.11033 4.17097 2.3011 4.24999 2.50001 4.24999C2.69892 4.24999 2.88969 4.17097 3.03034 4.03032C3.17099 3.88967 3.25001 3.6989 3.25001 3.49999C3.25001 3.30108 3.17099 3.11031 3.03034 2.96966C2.88969 2.82901 2.69892 2.74999 2.50001 2.74999ZM6.25001 13.25V11.75H7.75001V13.25H6.25001ZM3.25001 8.74999H1.75001V7.24999H3.25001V8.74999Z" fill="#304059"/>
</svg>
