<svg width="14" height="16" viewBox="0 0 14 16" fill="none" xmlns="http://www.w3.org/2000/svg">
<path d="M11.5 11C10.909 11 10.375 11.2325 9.9745 11.6052L4.6825 8.525C4.72 8.3525 4.75 8.18 4.75 8C4.75 7.82 4.72 7.6475 4.6825 7.475L9.97 4.3925C10.375 4.7675 10.9075 5 11.5 5C12.745 5 13.75 3.995 13.75 2.75C13.75 1.505 12.745 0.5 11.5 0.5C10.255 0.5 9.25 1.505 9.25 2.75C9.25 2.93 9.28 3.1025 9.3175 3.275L4.03 6.3575C3.625 5.9825 3.0925 5.75 2.5 5.75C1.255 5.75 0.25 6.755 0.25 8C0.25 9.245 1.255 10.25 2.5 10.25C3.0925 10.25 3.625 10.0175 4.03 9.6425L9.316 12.731C9.27376 12.9008 9.25161 13.075 9.25 13.25C9.25 13.695 9.38196 14.13 9.62919 14.5C9.87643 14.87 10.2278 15.1584 10.639 15.3287C11.0501 15.499 11.5025 15.5436 11.939 15.4568C12.3754 15.37 12.7763 15.1557 13.091 14.841C13.4057 14.5263 13.62 14.1254 13.7068 13.689C13.7936 13.2525 13.749 12.8001 13.5787 12.389C13.4084 11.9778 13.12 11.6264 12.75 11.3792C12.38 11.132 11.945 11 11.5 11Z" fill="#304059"/>
</svg>
