<svg width="16" height="14" viewBox="0 0 16 14" fill="none" xmlns="http://www.w3.org/2000/svg">
<path d="M8.80733 1.06889C8.47733 0.399561 7.52333 0.399561 7.19333 1.06889L5.62133 4.25356L2.106 4.76423C1.368 4.87156 1.07267 5.77889 1.60733 6.29956L4.15067 8.77956L3.55067 12.2796C3.424 13.0149 4.196 13.5756 4.856 13.2289L8 11.5756L11.144 13.2289C11.804 13.5756 12.576 13.0156 12.45 12.2796L11.85 8.77956L14.3933 6.29956C14.9267 5.77956 14.6327 4.87156 13.894 4.76423L10.38 4.25356L8.80667 1.06889H8.80733Z" fill="#FEC121"/>
<path d="M0.776033 1.52177C0.693295 1.62539 0.655102 1.75762 0.669854 1.8894C0.684607 2.02117 0.751097 2.14169 0.8547 2.22444L2.52137 3.55777C2.62498 3.64061 2.75725 3.67889 2.88909 3.6642C2.95437 3.65693 3.01758 3.63687 3.0751 3.60516C3.13263 3.57346 3.18335 3.53074 3.22437 3.47944C3.26538 3.42814 3.29589 3.36926 3.31415 3.30616C3.33241 3.24307 3.33807 3.17699 3.3308 3.11171C3.32352 3.04644 3.30346 2.98323 3.27176 2.9257C3.24006 2.86817 3.19734 2.81745 3.14603 2.77644L1.47937 1.4431C1.42804 1.40203 1.36912 1.37149 1.30598 1.35321C1.24284 1.33493 1.17671 1.32929 1.11139 1.33659C1.04606 1.3439 0.982816 1.36402 0.925272 1.39579C0.867729 1.42757 0.817015 1.47038 0.776033 1.52177Z" fill="#FEC121"/>
<path d="M15.2241 11.1457C15.3069 11.0422 15.3452 10.91 15.3306 10.7782C15.316 10.6465 15.2496 10.5259 15.1461 10.443L13.4794 9.10972C13.3758 9.02679 13.2435 8.98842 13.1116 9.00305C12.9797 9.01768 12.859 9.0841 12.7761 9.18772C12.6932 9.29133 12.6548 9.42364 12.6694 9.55554C12.6841 9.68744 12.7505 9.80813 12.8541 9.89105L14.5208 11.2244C14.572 11.2655 14.6309 11.2961 14.694 11.3144C14.7572 11.3327 14.8233 11.3384 14.8886 11.3312C14.9539 11.324 15.0172 11.3039 15.0748 11.2722C15.1323 11.2405 15.1831 11.1977 15.2241 11.1464V11.1457Z" fill="#FEC121"/>
<path d="M0.854711 10.4428C0.7511 10.5257 0.684639 10.6463 0.669948 10.7781C0.655258 10.91 0.693542 11.0422 0.776378 11.1458C0.859214 11.2495 0.979816 11.3159 1.11165 11.3306C1.24349 11.3453 1.37577 11.307 1.47938 11.2242L3.14604 9.89084C3.24966 9.80801 3.31612 9.6874 3.33081 9.55556C3.3455 9.42373 3.30721 9.29145 3.22438 9.18784C3.14154 9.08423 3.02094 9.01777 2.8891 9.00308C2.75726 8.98839 2.62499 9.02667 2.52138 9.10951L0.854711 10.4428Z" fill="#FEC121"/>
<path d="M15.2241 1.52177C15.3069 1.6253 15.3452 1.75749 15.3306 1.88926C15.316 2.02102 15.2496 2.14159 15.1461 2.22444L13.4794 3.55777C13.3758 3.6407 13.2435 3.67906 13.1116 3.66444C12.9797 3.64981 12.859 3.58338 12.7761 3.47977C12.6932 3.37616 12.6548 3.24385 12.6694 3.11195C12.6841 2.98005 12.7505 2.85936 12.8541 2.77644L14.5208 1.4431C14.5721 1.40203 14.631 1.37149 14.6941 1.35321C14.7573 1.33493 14.8234 1.32929 14.8887 1.33659C14.9541 1.3439 15.0173 1.36402 15.0749 1.39579C15.1324 1.42757 15.1831 1.47038 15.2241 1.52177Z" fill="#FEC121"/>
</svg>
