<svg width="21" height="21" viewBox="0 0 21 21" fill="none" xmlns="http://www.w3.org/2000/svg">
<mask id="path-1-inside-1_3327_1853" fill="white">
<path fill-rule="evenodd" clip-rule="evenodd" d="M7.37504 20.9166H4.36578C2.63989 20.9166 1.24078 19.5175 1.24078 17.7916L1.24067 7.37492H0.083374L10.5 0.083252L20.9167 7.37492H19.8011L19.8015 17.7916C19.8015 19.5175 18.4024 20.9166 16.6765 20.9166H13.625H7.37504ZM7.37504 20.9166V12.5833H13.625V20.9166"/>
</mask>
<path fill-rule="evenodd" clip-rule="evenodd" d="M7.37504 20.9166H4.36578C2.63989 20.9166 1.24078 19.5175 1.24078 17.7916L1.24067 7.37492H0.083374L10.5 0.083252L20.9167 7.37492H19.8011L19.8015 17.7916C19.8015 19.5175 18.4024 20.9166 16.6765 20.9166H13.625H7.37504ZM7.37504 20.9166V12.5833H13.625V20.9166" fill="#0072BA"/>
<path d="M1.24078 17.7916H2.24078V17.7916L1.24078 17.7916ZM1.24067 7.37492L2.24067 7.37491L2.24065 6.37492H1.24067V7.37492ZM0.083374 7.37492L-0.490088 6.55569L-3.08899 8.37492H0.083374V7.37492ZM10.5 0.083252L11.0735 -0.73598L10.5 -1.1374L9.92658 -0.73598L10.5 0.083252ZM20.9167 7.37492V8.37492H24.0891L21.4902 6.55569L20.9167 7.37492ZM19.8011 7.37492V6.37492H18.801L18.8011 7.37496L19.8011 7.37492ZM19.8015 17.7916H20.8015V17.7915L19.8015 17.7916ZM7.37504 12.5833V11.5833H6.37504V12.5833H7.37504ZM13.625 12.5833H14.625V11.5833H13.625V12.5833ZM7.37504 19.9166H4.36578V21.9166H7.37504V19.9166ZM4.36578 19.9166C3.19218 19.9166 2.24078 18.9652 2.24078 17.7916H0.240782C0.240782 20.0698 2.08761 21.9166 4.36578 21.9166V19.9166ZM2.24078 17.7916L2.24067 7.37491L0.240666 7.37493L0.240782 17.7916L2.24078 17.7916ZM1.24067 6.37492H0.083374V8.37492H1.24067V6.37492ZM0.656836 8.19415L11.0735 0.902484L9.92658 -0.73598L-0.490088 6.55569L0.656836 8.19415ZM9.92658 0.902484L20.3432 8.19415L21.4902 6.55569L11.0735 -0.73598L9.92658 0.902484ZM20.9167 6.37492H19.8011V8.37492H20.9167V6.37492ZM18.8011 7.37496L18.8015 17.7916L20.8015 17.7915L20.8011 7.37488L18.8011 7.37496ZM18.8015 17.7916C18.8015 18.9652 17.8501 19.9166 16.6765 19.9166V21.9166C18.9546 21.9166 20.8015 20.0698 20.8015 17.7916H18.8015ZM16.6765 19.9166H13.625V21.9166H16.6765V19.9166ZM13.625 19.9166H7.37504V21.9166H13.625V19.9166ZM8.37504 20.9166V12.5833H6.37504V20.9166H8.37504ZM7.37504 13.5833H13.625V11.5833H7.37504V13.5833ZM12.625 12.5833V20.9166H14.625V12.5833H12.625Z" fill="#0072BA" mask="url(#path-1-inside-1_3327_1853)"/>
</svg>
